# xmcd
#
# Track frame offsets: 
#        150
#        18887
#        38996
#        57467
#        73461
#        93782
#        117184
#        129722
#        149061
#        171576
#        190386
#        216040
#
# Disc length: 3078 seconds
#
# Revision: 0
# Processed by: cddbd v1.5.2PL0 Copyright (c) Steve Scherf et al.
# Submitted via: ExactAudioCopyFreeDBPlugin 1.0
#
DISCID=be0c040c
DTITLE=Dawes - Stories Don't End
DYEAR=2013
DGENRE=Americana
TTITLE0=Just Beneath the Surface
TTITLE1=From a Window Seat
TTITLE2=Just My Luck
TTITLE3=Someone Will
TTITLE4=Most People
TTITLE5=Something in Common
TTITLE6=Hey Lover
TTITLE7=Bear Witness
TTITLE8=Stories Don't End
TTITLE9=From the Right Angle
TTITLE10=Side Effects
TTITLE11=Just Beneath the Surface (Reprise)
EXTD=
EXTT0=
EXTT1=
EXTT2=
EXTT3=
EXTT4=
EXTT5=
EXTT6=
EXTT7=
EXTT8=
EXTT9=
EXTT10=
EXTT11=
PLAYORDER=
